<?xml version="1.0" standalone="no"?>
<!DOCTYPE svg PUBLIC "-//W3C//DTD SVG 20010904//EN"
 "http://www.w3.org/TR/2001/REC-SVG-20010904/DTD/svg10.dtd">
<svg version="1.0" xmlns="http://www.w3.org/2000/svg"
 width="512.000000pt" height="512.000000pt" viewBox="0 0 512.000000 512.000000"
 preserveAspectRatio="xMidYMid meet">

<g transform="translate(0.000000,512.000000) scale(0.100000,-0.100000)"
fill="#000000" stroke="none">
<path d="M704 4070 c-109 -16 -212 -83 -273 -178 -64 -100 -62 -47 -59 -1358
3 -1159 4 -1190 23 -1237 43 -104 129 -188 232 -227 46 -17 82 -22 173 -23
l115 -2 5 1093 5 1092 819 -649 c451 -358 822 -649 825 -647 3 3 362 279 796
615 l790 610 5 -1057 5 -1057 90 -3 c115 -4 216 12 281 43 65 32 147 119 182
192 l27 58 0 1225 0 1225 -26 55 c-38 81 -109 154 -186 192 -58 28 -79 33
-163 36 l-96 4 -827 -702 c-456 -386 -834 -699 -840 -696 -7 2 -396 320 -866
705 l-853 701 -67 -1 c-36 -1 -89 -5 -117 -9z"/>
</g>
</svg>
