<svg xmlns="http://www.w3.org/2000/svg" version="1.1" xmlns:xlink="http://www.w3.org/1999/xlink" xmlns:svgjs="http://svgjs.dev/svgjs" width="2000" height="1247" viewBox="0 0 2000 1247"><g transform="matrix(1,0,0,1,-1.2121212121212466,0.504858299595071)"><svg viewBox="0 0 396 247" data-background-color="#000000" preserveAspectRatio="xMidYMid meet" height="1247" width="2000" xmlns="http://www.w3.org/2000/svg" xmlns:xlink="http://www.w3.org/1999/xlink"><g id="tight-bounds" transform="matrix(1,0,0,1,0.2400000000000091,-0.09999999999999432)"><svg viewBox="0 0 395.52 247.2" height="247.2" width="395.52"><g><svg></svg></g><g><svg viewBox="0 0 395.52 247.2" height="247.2" width="395.52"><g transform="matrix(1,0,0,1,91.06993855544253,47.215199999999996)"><svg viewBox="0 0 213.38012288911492 152.7696" height="152.7696" width="213.38012288911492"><g><svg viewBox="0 0 213.38012288911492 152.7696" height="152.7696" width="213.38012288911492"><g><svg viewBox="0 0 213.38012288911492 152.7696" height="152.7696" width="213.38012288911492"><g><svg viewBox="0 0 213.38012288911492 152.7696" height="152.7696" width="213.38012288911492"><g id="textblocktransform"><svg viewBox="0 0 213.38012288911492 152.7696" height="152.7696" width="213.38012288911492" id="textblock"><g><svg viewBox="0 0 213.38012288911492 152.7696" height="152.7696" width="213.38012288911492"><g transform="matrix(1,0,0,1,0,0)"><svg width="213.38012288911492" viewBox="2.9000000953674316 -37.099998474121094 68.6500015258789 49.14999771118164" height="152.7696" data-palette-color="#ffffff"><path d="M2.9 0.6L3.2-1.7Q5.5-2.15 6.3-3.03 7.1-3.9 7.1-6L7.1-6 7.15-27Q7.15-28.6 6.78-29.15 6.4-29.7 5.3-29.7L5.3-29.7 3.6-29.6 3.5-29.8 3.85-32Q4.5-32 4.85-31.95L4.85-31.95Q7.85-31.85 9.4-31.85L9.4-31.85Q11.5-31.85 14.75-32.3L14.75-32.3 14.55-30.05Q13.05-29.8 12.43-29.45 11.8-29.1 11.58-28.28 11.35-27.45 11.25-25.55L11.25-25.55 10.95-17.45 19.35-17.4Q22.5-17.4 26.75-17.9L26.75-17.9 26.8-27Q26.8-28.6 26.43-29.15 26.05-29.7 24.95-29.7L24.95-29.7Q24.25-29.7 23.25-29.6L23.25-29.6 23.15-29.8 23.5-32Q24.05-31.95 25.5-31.9 26.95-31.85 28.4-31.85L28.4-31.85Q30.8-31.85 34.4-32.3L34.4-32.3 34.2-30.05Q32.35-29.8 31.7-29.23 31.05-28.65 31-27.2L31-27.2Q30.7-21.55 30.5-15.08 30.3-8.6 30.3-5.3L30.3-5.3Q30.3-3.45 30.75-2.83 31.2-2.2 32.5-2.2L32.5-2.2Q33.1-2.2 34.75-2.35L34.75-2.35 34.85-2.15 34.4 0.15Q33.7 0.15 33.3 0.1L33.3 0.1Q30 0 28.25 0L28.25 0 22.5 0.1 22.95-2.15Q24.6-2.2 25.38-2.6 26.15-3 26.45-4.1 26.75-5.2 26.75-7.5L26.75-7.5 26.75-15.05 19.15-15.1Q17.9-15.05 15.65-14.93 13.4-14.8 10.85-14.55L10.85-14.55 10.65-5.6Q10.65-3.55 11.1-2.88 11.55-2.2 12.85-2.2L12.85-2.2Q13.45-2.2 15.1-2.35L15.1-2.35 15.2-2.15 14.75 0.15Q14.3 0.1 13.05 0.05 11.8 0 10.5 0L10.5 0Q8.2 0 5.58 0.2 2.95 0.4 2.9 0.6L2.9 0.6ZM39.4-1.75Q40.7-1.95 41.25-2.48 41.8-3 41.92-3.85 42.05-4.7 42.05-6.75L42.05-6.75 42.05-31.3Q42.05-34 40.2-34L40.2-34Q39.85-34 39.45-33.93 39.05-33.85 38.95-33.8L38.95-33.8Q38.95-34.1 39.05-34.7L39.05-34.7 39.15-35.65Q41.3-35.95 43.6-36.45 45.9-36.95 46.55-37.1L46.55-37.1 46.85-36.45Q46.3-35.6 45.87-25.85 45.45-16.1 45.45-4.9L45.45-4.9Q45.45-3.35 45.85-2.73 46.25-2.1 47.25-2.1L47.25-2.1Q47.8-2.1 48.3-2.15 48.8-2.2 49-2.2L49-2.2 49.1-2 48.65 0.15Q48.2 0.1 46.9 0.05 45.6 0 44.1 0L44.1 0Q42.8 0 41.22 0.13 39.65 0.25 39.15 0.3L39.15 0.3 39.4-1.75ZM46.7-11.7L46.8-12.5 52.75-18.2Q53.45-18.85 53.7-19.23 53.95-19.6 53.95-19.95L53.95-19.95Q53.95-20.5 53.3-20.75 52.65-21 51.2-21L51.2-21 51.05-21.25 51.5-22.7Q52.05-22.7 53.52-22.65 55-22.6 56.55-22.6L56.55-22.6Q57.75-22.6 59.3-22.73 60.85-22.85 61.3-22.9L61.3-22.9 61.45-22.65 61.05-21.1Q59-20.5 56.92-18.8 54.85-17.1 51.95-14.2L51.95-14.2Q51.95-14.2 50.4-12.65L50.4-12.65 55.65-5.9Q57.35-3.7 58.75-2.75 60.15-1.8 61.7-1.8L61.7-1.8 61.85-1.55 61.55-0.1Q61.1 0.05 59.7 0.38 58.3 0.7 57.85 0.7L57.85 0.7Q57.1 0.7 56.1 0.2L56.1 0.2Q55.35-0.2 54.57-1.03 53.8-1.85 52.6-3.55L52.6-3.55 46.7-11.7ZM68.6-30.1Q67.5-30.1 66.82-30.8 66.15-31.5 66.15-32.65L66.15-32.65Q66.15-33.9 67-34.75 67.85-35.6 69.1-35.6L69.1-35.6Q70.15-35.6 70.85-34.88 71.55-34.15 71.55-33.05L71.55-33.05Q71.55-31.8 70.7-30.95 69.85-30.1 68.6-30.1L68.6-30.1ZM64.2 12.05L63.3 11.1 63.4 10.7Q65.55 8.55 66.32 5.9 67.1 3.25 67.1-1.9L67.1-1.9 67.1-17.4Q67.1-18.95 66.67-19.53 66.25-20.1 65.1-20.1L65.1-20.1Q64.65-20.1 64.27-20.05 63.9-20 63.75-19.95L63.75-19.95 63.95-21.8Q65.85-22.05 68.15-22.55 70.45-23.05 71.15-23.2L71.15-23.2 71.4-22.6Q70.55-21.15 70.55 0.7L70.55 0.7Q70.55 4.3 68.9 7.25 67.25 10.2 64.2 12.05L64.2 12.05Z" opacity="1" transform="matrix(1,0,0,1,0,0)" fill="#000000" class="undefined-text-0" data-fill-palette-color="primary" id="text-0"></path></svg></g></svg></g></svg></g></svg></g></svg></g></svg></g></svg></g><path d="M122.149 41.215L122.149 0 369.349 0 369.349 247.2 122.149 247.2 122.149 205.985 135.926 205.985 135.926 233.423 355.572 233.423 355.572 13.777 135.926 13.777 135.926 41.215Z" fill="#000000" stroke="transparent" data-fill-palette-color="primary"></path></svg></g><defs></defs></svg><rect width="395.52" height="247.2" fill="none" stroke="none" visibility="hidden"></rect></g></svg></g></svg>